<?xml version="1.0" encoding="utf-8"?>
<!-- (c) ammap.com | SVG map of Colombia -->
<svg xmlns="http://www.w3.org/2000/svg" xmlns:amcharts="http://amcharts.com/ammap" xmlns:xlink="http://www.w3.org/1999/xlink" version="1.1">
	<defs>

		<!-- All areas are listed in the line below. You can use this list in your script. -->
		<!--{id:"CO-AMA"},{id:"CO-ANT"},{id:"CO-ARA"},{id:"CO-ATL"},{id:"CO-BOL"},{id:"CO-BOY"},{id:"CO-CAL"},{id:"CO-CES"},{id:"CO-CHO"},{id:"CO-CAL"},{id:"CO-COR"},{id:"CO-CAQ"},{id:"CO-CAS"},{id:"CO-CUN"},{id:"CO-DC"},{id:"CO-GUA"},{id:"CO-GUV"},{id:"CO-HUI"},{id:"CO-LAG"},{id:"CO-MAG"},{id:"CO-MET"},{id:"CO-NAR"},{id:"CO-NSA"},{id:"CO-PUT"},{id:"CO-QUI"},{id:"CO-RIS"},{id:"CO-SAN"},{id:"CO-SUC"},{id:"CO-SAP"},{id:"CO-TOL"},{id:"CO-VAC"},{id:"CO-VID"},{id:"CO-VAU"}-->

	</defs>
	<g  transform="translate(6532.122031643126,-99560.0563912631) scale(0.25737822255446274)">
		<path id="CO-BO1" d="M203.79 13.9 203.72 19.85 185.59 20.86 154.56 13.9 124.04 13.9 123.74 16.04 117.17 15.96 116.89 13.9 97.81 13.9 99.35 18.63 84.62 19.97 78.26 13.9 44.86 13.9 47.49 43.26 37.63 39.06 19.11 40.13 13 48.44 15.5 80.38 256.72 98.05 269.06 80.32 266.81 57.91 273.75 48.49 285.96 47.26 286.05 39.37 276.45 32.31 267.04 33.72 264.41 16.77 218.1 20 217.26 13.9 203.79 13.9z" color="#00547b" style="fill:#00547b"/>
		<path id="CO-BO2" d="M310.63,50.25,290.34,50l-16.69,8.89,2.61,23.64-11.14,15.6,149.29,12L411,78.65l-9.37.2s-11,9.22-19-5.37l-14.71,1-8.3-11.27-7.82-.08S346,73.35,338.29,65.4L327.36,67l-.86-9.32-8.45.82-.65,4.23Z" color="#29abe2" style="fill:#29abe2"/>
		<path id="CO-BO3" d="M348.18 140.23 345.65 112.97 254.74 105.87 258.99 149.64 273.37 149.81 304.75 170.29 348.18 140.23z" color="#00547b" style="fill:#00547b"/>
		<path id="CO-BO4" d="M414.34 120.13 355.3 116.43 356.58 141.22 311.59 173.4 352.26 199.59 419 151.5 414.34 120.13z" color="#00a99d" style="fill:#00a99d"/>
		<path id="CO-BO5" d="M38.61,89.74l207.8,16,5.36,49.07,12.8.16-18.87,19.43L215.6,176.5l-74,81.74-1.5,26.3-14.22-16.2-3.72-35.75-37.73-7.69-7.33-14.09-6.64,4.54L44.13,193.58,76.31,164.9l64.45-6.8S120.33,139.69,115,141.17l-58.5,6.12-14-12Z" color="#00a99d" style="fill:#00a99d"/>
		<path id="CO-BO6" d="M271.11,157l-19.28,22-29.72,3.29-73.64,81.12,1.55,13,11.12.13,8.53-5.65,11.18,5.86,3,8.22L176,288s4.88,10.93-3,17.82l13.81,22.69,8.15.09,1.76,13.8-1.31,5.09,5,.08,4.09-5.11,6.29-1.12,4.12-8.41-8.05-6.17,56.78-81.63,16.74,11.11L345.35,204Z" color="#2e3192" style="fill:#2e3192"/>
		<path id="CO-BO7" d="M392.93,195.22l-5.17-13.37s-104,82-104,84.11l-17.1-9.88-48.2,69,5.89,3.86-.64,1.35-2.22,5,.28,1.3,13.74,3.48,1.72,14.83,6.64.1,6,14.58,11.26.13,3.71,5.8,8.13.09,8.81-7.45,11.58-1.69,11.13,13.76,7.5.08s13.61-17.11,19.54-16.71L331.42,344l8.15-1.43,8.21-8.37-5.61-1-2.67-15.46,4.72-.25-1.51-7.87s-14.83-15.89,1.88-30.23l47.91-41.51L368.93,221Z" color="#00547b" style="fill:#00547b"/>
		<path id="CO-BO8" d="M515.57 92.87 511.32 78.89 466.57 83.22 468.59 98.99 488.35 97.1 500.3 121.73 498.97 96.91 515.57 92.87z" color="#5e6c68" style="fill:#5e6c68"/>
		<path id="CO-BO9" d="M536.36 104.92 517.39 97.14 504.22 102.1 504.02 125.11 500.14 135.96 485.45 104.62 462.62 105.26 462.69 97.7 442.67 99.57 417.8 83.87 422.41 125.66 439.68 115.29 504.07 150.2 509.37 150.28 538.11 118.55 538.1 119.75 536.36 104.92z" color="#2e3192" style="fill:#2e3192"/>
		<path id="CO-BO10" d="M503.03 156.55 438.37 122.85 422.32 133.51 424.07 145.05 434.69 147.29 482.44 185.37 503.03 156.55z" color="#00547b" style="fill:#00547b"/>
		<path id="CO-BO11" d="M543.55 170.64 514.96 154.73 487.4 189.04 506.61 205.32 509.66 244.98 521.03 231.19 517.31 199.93 543.55 170.64z" color="#29abe2" style="fill:#29abe2"/>
		<path id="CO-BO12" d="M504.45 267.31 499.39 208.56 426.5 153.71 393.12 178.56 400.42 197.11 378.3 220.45 399.73 235.22 441.34 247.83 466.62 236.92 473.03 251.82 504.45 267.31z" color="#5e6c68" style="fill:#5e6c68"/>
		<path id="CO-BO13" d="M628.37 221.25 624.65 215.47 599.04 216.89 599.09 210 575.39 203.4 572.08 189.74 548.17 175.54 525.73 201.62 527.97 228.57 525.42 233.06 536.79 251.65 564.13 236.24 576.73 240.3 598.95 223.95 628.37 221.25z" color="#00547b" style="fill:#00547b"/>
		<path id="CO-BO14" d="M596.75 99.24 581.86 91.55 566.51 93.45 544.19 106.52 547.47 122.29 519.99 150.41 577.29 184.34 579.23 195.25 584.22 195.31 582.48 184.12 593.21 173.95 619.78 172.44 626 175.24 635.2 165.04 636.51 156.14 670.29 153.97 682.04 136.25 656.91 116.61 615.33 118.85 615.63 120.66 616.2 124.89 590.55 126.41 588.84 109.45 578.1 105.1 596.75 99.24z" color="#00a99d" style="fill:#00a99d"/>
		<path id="CO-BO15" d="M782.44 97.79 745.79 106.73 750.71 145.36 787 143.25 782.44 97.79z" color="#01937c" style="fill:#01937c"/>
		<path id="CO-BO16" d="M740.7,113.64l-20.3,1.28-.08,6.11.94,0-7.19-.09,0,1.42-7,13.84L688.27,139l-12.12,20.13L644,161.83l1.51,7-15.16,14L600.64,181l-9.13,7.14-.1,7.26,16.46,14.11L632,206.46l.81,13,36-1.77,2.38,11,20.56,7.5,4.47-9.34,39,.76s3.07-25.51,8.71-25.07l27.79,2.2-2.61-22.42,12.29-8.63-1.11-13.61-27.58,5.11-16.18-7.9-18.8,6-2-13.94,6-6-.54-5.77,4.37-.54.56,5.12,16.64-.82Z" color="#89ddaf" style="fill:#89ddaf"/>
		<path id="CO-BO17" d="M652.06 225.15 604.5 229.15 580.56 250.03 565.3 243.19 541.1 259.28 530.15 257.29 521.91 239.07 510.53 251.34 518.23 326.76 534.17 324.82 531.9 303.92 628.13 243.64 628.19 235.46 652.06 225.15z" color="#00547b" style="fill:#00547b"/>
		<path id="CO-BO18" d="M675,275.64l0,3.63-5.3-.06,0,1.22-.07,7.56,6.56.06-8.29,16.56-15,1.19-1.58.12,1.56,3.05-8.47-.11-1.18-2.15-9.71.82-.08,8.46,11.23.12,6.5,8.24,1.55,0-17.81-.2-5.08,7.52-15.78-15,9.69-.8.11-10.59-4.35-.07-4.46-6.18-.79-1.12-14.68,1.33-3.27,9.95-8.43.51-2.1-8.51-16.94,5-.09,8.78L580.45,322l-.05,7.26,9.5,17L583,353.82l-6.25-.06-1-10.9-5.77.24-5.12,10.53,0,1.18-3.71,0-2.18-4-23.16,2.48-7,9-.06,7.26H530L534,372a14.86,14.86,0,0,0-1.39,10.87l-4-2.76-5.34.55-5.45-47.56,24.39-1.53L539,307.35l96.87-60.9.09-7.86,26.69-11.2.24,5.73L643,252.87l.86,7Z" color="#01937c" style="fill:#01937c"/>
		<path id="CO-BO19" d="M504.37,275l-38.31-16.94-4.26-11.54-22,9.73-42.06-15-43.85,41.25,15.48,12,14.74-4.64,5.25,8.82,14.38.17,8.14,26.73-.31,1.48L396.16,342l12.37,14.09L393.62,369.2l8.5,1.91,4.61,5.48,28-20.53,11.1,15.53,15-.11,7.76,5.86-4.73,4.79,2,17.86,8.06,6.13,3.84-9-5.26-4-.22-8.76,27.08-21.46.06-8.17-10.23-7.08s-4.77-21.54,19.23-47Z" color="#29abe2" style="fill:#29abe2"/>
		<path id="CO-BO20" d="M508.37,309.71l-11.14,20.74s-5.76,12.34,5.3,15.79l2.8,20-26.2,24.21s10.17,14-3.06,23.24c0,0-25.89-4.83-17.45-36.19l-16.84-2.33L423.57,384l9.15,21.6-18.29,14,4.62,7.3,17.34-13.11,12.18,30.71,64.75-5.61,5.54-56.21Z" color="#00547b" style="fill:#00547b"/>
	</g>
</svg>